<svg id="visual" viewBox="0 0 900 600" width="900" height="600" xmlns="http://www.w3.org/2000/svg" xmlns:xlink="http://www.w3.org/1999/xlink" version="1.1"><path d="M0 276L10 288C20 300 40 324 60 342.2C80 360.3 100 372.7 120 370.3C140 368 160 351 180 340.2C200 329.3 220 324.7 240 325.7C260 326.7 280 333.3 300 339.7C320 346 340 352 360 346.3C380 340.7 400 323.3 420 329.8C440 336.3 460 366.7 480 368C500 369.3 520 341.7 540 329.2C560 316.7 580 319.3 600 328.5C620 337.7 640 353.3 660 346C680 338.7 700 308.3 720 309.3C740 310.3 760 342.7 780 351.2C800 359.7 820 344.3 840 344.3C860 344.3 880 359.7 890 367.3L900 375L900 601L890 601C880 601 860 601 840 601C820 601 800 601 780 601C760 601 740 601 720 601C700 601 680 601 660 601C640 601 620 601 600 601C580 601 560 601 540 601C520 601 500 601 480 601C460 601 440 601 420 601C400 601 380 601 360 601C340 601 320 601 300 601C280 601 260 601 240 601C220 601 200 601 180 601C160 601 140 601 120 601C100 601 80 601 60 601C40 601 20 601 10 601L0 601Z" fill="#078c93"></path><path d="M0 408L10 408.7C20 409.3 40 410.7 60 423.3C80 436 100 460 120 457.8C140 455.7 160 427.3 180 412C200 396.7 220 394.3 240 395.3C260 396.3 280 400.7 300 401.3C320 402 340 399 360 413C380 427 400 458 420 466.2C440 474.3 460 459.7 480 449C500 438.3 520 431.7 540 430.3C560 429 580 433 600 427.7C620 422.3 640 407.7 660 416.3C680 425 700 457 720 478.5C740 500 760 511 780 496.2C800 481.3 820 440.7 840 419C860 397.3 880 394.7 890 393.3L900 392L900 601L890 601C880 601 860 601 840 601C820 601 800 601 780 601C760 601 740 601 720 601C700 601 680 601 660 601C640 601 620 601 600 601C580 601 560 601 540 601C520 601 500 601 480 601C460 601 440 601 420 601C400 601 380 601 360 601C340 601 320 601 300 601C280 601 260 601 240 601C220 601 200 601 180 601C160 601 140 601 120 601C100 601 80 601 60 601C40 601 20 601 10 601L0 601Z" fill="#9dd0d3"></path></svg>